<mxfile host="app.diagrams.net" modified="2024-08-07T07:08:46.058Z" agent="Mozilla/5.0 (Macintosh; Intel Mac OS X 10_15_7) AppleWebKit/537.36 (KHTML, like Gecko) Chrome/127.0.0.0 Safari/537.36 Edg/127.0.0.0" etag="Jiqm4HV4Yw98ljSORSE_" version="24.6.5" type="github">
  <diagram name="第 1 页" id="TIvUaM3djEZLlQsXNVwl">
    <mxGraphModel dx="946" dy="618" grid="1" gridSize="10" guides="1" tooltips="1" connect="1" arrows="1" fold="1" page="1" pageScale="1" pageWidth="5000" pageHeight="5000" math="0" shadow="0">
      <root>
        <mxCell id="0" />
        <mxCell id="1" parent="0" />
        <mxCell id="LlAt9Zetxjs8204ZaU9U-20" value="" style="rounded=0;whiteSpace=wrap;html=1;" vertex="1" parent="1">
          <mxGeometry x="660" y="510" width="800" height="750" as="geometry" />
        </mxCell>
        <mxCell id="LlAt9Zetxjs8204ZaU9U-56" value="" style="group" vertex="1" connectable="0" parent="1">
          <mxGeometry x="900" y="680" width="540" height="384" as="geometry" />
        </mxCell>
        <mxCell id="LlAt9Zetxjs8204ZaU9U-29" value="" style="rounded=0;whiteSpace=wrap;html=1;" vertex="1" parent="LlAt9Zetxjs8204ZaU9U-56">
          <mxGeometry y="29.35031847133758" width="540" height="354.6496815286624" as="geometry" />
        </mxCell>
        <mxCell id="LlAt9Zetxjs8204ZaU9U-55" value="Conversation" style="text;html=1;align=center;verticalAlign=middle;whiteSpace=wrap;rounded=0;" vertex="1" parent="LlAt9Zetxjs8204ZaU9U-56">
          <mxGeometry x="470" width="60" height="36.68789808917197" as="geometry" />
        </mxCell>
        <mxCell id="LlAt9Zetxjs8204ZaU9U-32" value="" style="rounded=0;whiteSpace=wrap;html=1;" vertex="1" parent="LlAt9Zetxjs8204ZaU9U-56">
          <mxGeometry x="15" y="176.5" width="510" height="180" as="geometry" />
        </mxCell>
        <mxCell id="LlAt9Zetxjs8204ZaU9U-34" value="bot.checkParams" style="rounded=0;whiteSpace=wrap;html=1;dashed=1;" vertex="1" parent="LlAt9Zetxjs8204ZaU9U-56">
          <mxGeometry x="30" y="199.99999999999994" width="110" height="60" as="geometry" />
        </mxCell>
        <mxCell id="LlAt9Zetxjs8204ZaU9U-33" value="bot.reqContent" style="rounded=0;whiteSpace=wrap;html=1;" vertex="1" parent="LlAt9Zetxjs8204ZaU9U-56">
          <mxGeometry x="150" y="199.99999999999994" width="120" height="60" as="geometry" />
        </mxCell>
        <mxCell id="LlAt9Zetxjs8204ZaU9U-37" value="sendMessage" style="rounded=0;whiteSpace=wrap;html=1;fillColor=#ffe6cc;strokeColor=#d79b00;" vertex="1" parent="LlAt9Zetxjs8204ZaU9U-56">
          <mxGeometry x="280" y="290" width="120" height="60" as="geometry" />
        </mxCell>
        <mxCell id="LlAt9Zetxjs8204ZaU9U-35" value="bot.send" style="rounded=0;whiteSpace=wrap;html=1;dashed=1;" vertex="1" parent="LlAt9Zetxjs8204ZaU9U-56">
          <mxGeometry x="280" y="199.99999999999994" width="120" height="60" as="geometry" />
        </mxCell>
        <mxCell id="LlAt9Zetxjs8204ZaU9U-36" value="toStream" style="rounded=0;whiteSpace=wrap;html=1;" vertex="1" parent="LlAt9Zetxjs8204ZaU9U-56">
          <mxGeometry x="410" y="199.99999999999994" width="110" height="60" as="geometry" />
        </mxCell>
        <mxCell id="LlAt9Zetxjs8204ZaU9U-30" value="Bot" style="rounded=0;whiteSpace=wrap;html=1;" vertex="1" parent="LlAt9Zetxjs8204ZaU9U-56">
          <mxGeometry x="20" y="64" width="120" height="60" as="geometry" />
        </mxCell>
        <mxCell id="LlAt9Zetxjs8204ZaU9U-31" value="messages" style="rounded=0;whiteSpace=wrap;html=1;" vertex="1" parent="LlAt9Zetxjs8204ZaU9U-56">
          <mxGeometry x="180" y="64" width="120" height="60" as="geometry" />
        </mxCell>
        <mxCell id="LlAt9Zetxjs8204ZaU9U-54" value="" style="group" vertex="1" connectable="0" parent="1">
          <mxGeometry x="900" y="520" width="540" height="132" as="geometry" />
        </mxCell>
        <mxCell id="LlAt9Zetxjs8204ZaU9U-24" value="" style="rounded=0;whiteSpace=wrap;html=1;" vertex="1" parent="LlAt9Zetxjs8204ZaU9U-54">
          <mxGeometry y="22" width="540" height="110" as="geometry" />
        </mxCell>
        <mxCell id="LlAt9Zetxjs8204ZaU9U-53" value="Bot" style="text;html=1;align=center;verticalAlign=middle;whiteSpace=wrap;rounded=0;" vertex="1" parent="LlAt9Zetxjs8204ZaU9U-54">
          <mxGeometry x="470" width="60" height="30" as="geometry" />
        </mxCell>
        <mxCell id="LlAt9Zetxjs8204ZaU9U-38" value="" style="rounded=0;whiteSpace=wrap;html=1;dashed=1;dashPattern=1 1;" vertex="1" parent="1">
          <mxGeometry x="670" y="1090" width="760" height="90" as="geometry" />
        </mxCell>
        <mxCell id="LlAt9Zetxjs8204ZaU9U-3" value="getInputParams" style="rounded=1;whiteSpace=wrap;fontColor=default;labelBackgroundColor=default;" vertex="1" parent="1">
          <mxGeometry x="670" y="560" width="120" height="60" as="geometry" />
        </mxCell>
        <mxCell id="LlAt9Zetxjs8204ZaU9U-12" value="addCopilotAction" style="rounded=1;whiteSpace=wrap;fontColor=default;labelBackgroundColor=default;" vertex="1" parent="1">
          <mxGeometry x="694" y="1105" width="110" height="60" as="geometry" />
        </mxCell>
        <mxCell id="LlAt9Zetxjs8204ZaU9U-13" value="openCopilot" style="rounded=1;whiteSpace=wrap;fontColor=default;labelBackgroundColor=default;" vertex="1" parent="1">
          <mxGeometry x="810" y="1105" width="100" height="60" as="geometry" />
        </mxCell>
        <mxCell id="LlAt9Zetxjs8204ZaU9U-14" value="continueToChat" style="rounded=1;whiteSpace=wrap;fontColor=default;labelBackgroundColor=default;" vertex="1" parent="1">
          <mxGeometry x="915" y="1105" width="110" height="60" as="geometry" />
        </mxCell>
        <mxCell id="LlAt9Zetxjs8204ZaU9U-15" value="chatToCopilot" style="rounded=1;whiteSpace=wrap;fontColor=default;labelBackgroundColor=default;" vertex="1" parent="1">
          <mxGeometry x="1030" y="1105" width="100" height="60" as="geometry" />
        </mxCell>
        <mxCell id="LlAt9Zetxjs8204ZaU9U-16" value="chatToWeb" style="rounded=1;whiteSpace=wrap;fontColor=default;labelBackgroundColor=default;" vertex="1" parent="1">
          <mxGeometry x="1140" y="1105" width="90" height="60" as="geometry" />
        </mxCell>
        <mxCell id="LlAt9Zetxjs8204ZaU9U-17" value="content2Text" style="rounded=1;whiteSpace=wrap;fontColor=default;labelBackgroundColor=default;" vertex="1" parent="1">
          <mxGeometry x="670" y="1190" width="120" height="60" as="geometry" />
        </mxCell>
        <mxCell id="LlAt9Zetxjs8204ZaU9U-43" style="edgeStyle=orthogonalEdgeStyle;rounded=0;orthogonalLoop=1;jettySize=auto;html=1;exitX=0;exitY=0.5;exitDx=0;exitDy=0;entryX=1;entryY=0.5;entryDx=0;entryDy=0;" edge="1" parent="1" source="LlAt9Zetxjs8204ZaU9U-25" target="LlAt9Zetxjs8204ZaU9U-3">
          <mxGeometry relative="1" as="geometry" />
        </mxCell>
        <mxCell id="LlAt9Zetxjs8204ZaU9U-25" value="inputParams" style="rounded=0;whiteSpace=wrap;html=1;" vertex="1" parent="1">
          <mxGeometry x="920" y="560" width="100" height="60" as="geometry" />
        </mxCell>
        <mxCell id="LlAt9Zetxjs8204ZaU9U-26" value="check params" style="rounded=0;whiteSpace=wrap;html=1;dashed=1;" vertex="1" parent="1">
          <mxGeometry x="1040" y="560" width="120" height="60" as="geometry" />
        </mxCell>
        <mxCell id="LlAt9Zetxjs8204ZaU9U-27" value="request params" style="rounded=0;whiteSpace=wrap;html=1;" vertex="1" parent="1">
          <mxGeometry x="1180" y="560" width="120" height="60" as="geometry" />
        </mxCell>
        <mxCell id="LlAt9Zetxjs8204ZaU9U-28" value="send" style="rounded=0;whiteSpace=wrap;html=1;dashed=1;" vertex="1" parent="1">
          <mxGeometry x="1310" y="560" width="120" height="60" as="geometry" />
        </mxCell>
        <mxCell id="LlAt9Zetxjs8204ZaU9U-52" style="edgeStyle=orthogonalEdgeStyle;rounded=0;orthogonalLoop=1;jettySize=auto;html=1;exitX=0.5;exitY=0;exitDx=0;exitDy=0;entryX=1;entryY=0.5;entryDx=0;entryDy=0;" edge="1" parent="1" source="LlAt9Zetxjs8204ZaU9U-31" target="LlAt9Zetxjs8204ZaU9U-46">
          <mxGeometry relative="1" as="geometry" />
        </mxCell>
        <mxCell id="LlAt9Zetxjs8204ZaU9U-40" style="edgeStyle=orthogonalEdgeStyle;rounded=0;orthogonalLoop=1;jettySize=auto;html=1;exitX=0;exitY=0.5;exitDx=0;exitDy=0;entryX=1;entryY=0.5;entryDx=0;entryDy=0;" edge="1" parent="1" source="LlAt9Zetxjs8204ZaU9U-32" target="LlAt9Zetxjs8204ZaU9U-39">
          <mxGeometry relative="1" as="geometry" />
        </mxCell>
        <mxCell id="LlAt9Zetxjs8204ZaU9U-44" value="getCopilotInfo" style="rounded=1;whiteSpace=wrap;fontColor=default;labelBackgroundColor=default;dashed=1;" vertex="1" parent="1">
          <mxGeometry x="1240" y="1105" width="90" height="60" as="geometry" />
        </mxCell>
        <mxCell id="LlAt9Zetxjs8204ZaU9U-47" value="" style="group" vertex="1" connectable="0" parent="1">
          <mxGeometry x="670" y="630" width="200" height="75" as="geometry" />
        </mxCell>
        <mxCell id="LlAt9Zetxjs8204ZaU9U-46" value="" style="rounded=1;whiteSpace=wrap;html=1;fillColor=none;dashed=1;dashPattern=1 1;" vertex="1" parent="LlAt9Zetxjs8204ZaU9U-47">
          <mxGeometry width="200" height="75" as="geometry" />
        </mxCell>
        <mxCell id="LlAt9Zetxjs8204ZaU9U-5" value="getMessages" style="rounded=1;whiteSpace=wrap;fontColor=default;labelBackgroundColor=default;" vertex="1" parent="LlAt9Zetxjs8204ZaU9U-47">
          <mxGeometry x="10" y="7.5" width="90" height="60" as="geometry" />
        </mxCell>
        <mxCell id="LlAt9Zetxjs8204ZaU9U-6" value="toString" style="rounded=1;whiteSpace=wrap;fontColor=default;labelBackgroundColor=default;" vertex="1" parent="LlAt9Zetxjs8204ZaU9U-47">
          <mxGeometry x="110" y="7.5" width="80" height="60" as="geometry" />
        </mxCell>
        <mxCell id="LlAt9Zetxjs8204ZaU9U-49" value="" style="group;dashed=1;dashPattern=1 1;" vertex="1" connectable="0" parent="1">
          <mxGeometry x="670" y="710" width="180" height="72" as="geometry" />
        </mxCell>
        <mxCell id="LlAt9Zetxjs8204ZaU9U-48" value="" style="rounded=1;whiteSpace=wrap;html=1;fillColor=none;dashed=1;dashPattern=1 1;" vertex="1" parent="LlAt9Zetxjs8204ZaU9U-49">
          <mxGeometry width="180" height="72" as="geometry" />
        </mxCell>
        <mxCell id="LlAt9Zetxjs8204ZaU9U-7" value="getBots" style="rounded=1;whiteSpace=wrap;fontColor=default;labelBackgroundColor=default;" vertex="1" parent="LlAt9Zetxjs8204ZaU9U-49">
          <mxGeometry x="10" y="6" width="70" height="60" as="geometry" />
        </mxCell>
        <mxCell id="LlAt9Zetxjs8204ZaU9U-8" value="getBot" style="rounded=1;whiteSpace=wrap;fontColor=default;labelBackgroundColor=default;" vertex="1" parent="LlAt9Zetxjs8204ZaU9U-49">
          <mxGeometry x="90" y="6" width="80" height="60" as="geometry" />
        </mxCell>
        <mxCell id="LlAt9Zetxjs8204ZaU9U-39" value="" style="rounded=1;whiteSpace=wrap;html=1;fillColor=default;dashed=1;dashPattern=1 2;" vertex="1" parent="1">
          <mxGeometry x="670" y="860" width="160" height="220" as="geometry" />
        </mxCell>
        <mxCell id="LlAt9Zetxjs8204ZaU9U-9" value="createConversation" style="rounded=1;whiteSpace=wrap;fontColor=default;labelBackgroundColor=default;" vertex="1" parent="1">
          <mxGeometry x="690" y="792" width="120" height="60" as="geometry" />
        </mxCell>
        <mxCell id="LlAt9Zetxjs8204ZaU9U-10" value="chat" style="rounded=1;whiteSpace=wrap;fontColor=default;labelBackgroundColor=default;" vertex="1" parent="1">
          <mxGeometry x="690" y="940" width="120" height="60" as="geometry" />
        </mxCell>
        <mxCell id="LlAt9Zetxjs8204ZaU9U-11" value="templateChat" style="rounded=1;whiteSpace=wrap;fontColor=default;labelBackgroundColor=default;" vertex="1" parent="1">
          <mxGeometry x="690" y="1010" width="120" height="60" as="geometry" />
        </mxCell>
        <mxCell id="LlAt9Zetxjs8204ZaU9U-57" value="sendMessage" style="rounded=1;whiteSpace=wrap;fontColor=default;labelBackgroundColor=default;" vertex="1" parent="1">
          <mxGeometry x="689" y="870" width="120" height="60" as="geometry" />
        </mxCell>
        <mxCell id="LlAt9Zetxjs8204ZaU9U-59" style="edgeStyle=orthogonalEdgeStyle;rounded=0;orthogonalLoop=1;jettySize=auto;html=1;exitX=0;exitY=0.5;exitDx=0;exitDy=0;entryX=1;entryY=0.5;entryDx=0;entryDy=0;" edge="1" parent="1" source="LlAt9Zetxjs8204ZaU9U-30" target="LlAt9Zetxjs8204ZaU9U-48">
          <mxGeometry relative="1" as="geometry" />
        </mxCell>
        <mxCell id="LlAt9Zetxjs8204ZaU9U-60" style="edgeStyle=orthogonalEdgeStyle;rounded=0;orthogonalLoop=1;jettySize=auto;html=1;exitX=0;exitY=0.25;exitDx=0;exitDy=0;entryX=1;entryY=0.5;entryDx=0;entryDy=0;" edge="1" parent="1" source="LlAt9Zetxjs8204ZaU9U-29" target="LlAt9Zetxjs8204ZaU9U-9">
          <mxGeometry relative="1" as="geometry" />
        </mxCell>
      </root>
    </mxGraphModel>
  </diagram>
</mxfile>
